<svg width="40" height="40" viewBox="0 0 40 40" fill="none" xmlns="http://www.w3.org/2000/svg">
<mask id="mask0_1_11239" style="mask-type:luminance" maskUnits="userSpaceOnUse" x="1" y="1" width="38" height="38">
<path d="M20 1C30.4937 1 39 9.50635 39 20C39 30.4937 30.4937 39 20 39C9.50635 39 1 30.4937 1 20C1 9.50635 9.50635 1 20 1Z" fill="white"/>
</mask>
<g mask="url(#mask0_1_11239)">
<path d="M20 1C30.4937 1 39 9.50635 39 20C39 30.4937 30.4937 39 20 39C9.50635 39 1 30.4937 1 20C1 9.50635 9.50635 1 20 1Z" fill="#2A9FFF"/>
<g opacity="0.5">
<g opacity="0.09">
<path d="M32.5327 2.07981C32.5213 2.0396 32.4983 2.01088 32.4638 1.98791C32.4294 1.96493 32.3949 1.95345 32.3547 1.95345C32.3145 1.95345 32.2743 1.96493 32.2456 1.98791C32.2111 2.01088 32.1881 2.04535 32.1766 2.07981L32.0445 2.47038C32.0445 2.47038 32.0216 2.52207 31.9986 2.54504C31.9756 2.56802 31.9526 2.57951 31.9239 2.59099L31.5333 2.7231C31.4931 2.73458 31.4644 2.75756 31.4414 2.79202C31.4185 2.82648 31.407 2.86094 31.407 2.90115C31.407 2.94136 31.4185 2.98156 31.4414 3.01028C31.4644 3.04474 31.4989 3.06772 31.5333 3.0792L31.9239 3.21131C31.9239 3.21131 31.9756 3.23428 31.9986 3.25726C32.0216 3.28023 32.033 3.30321 32.0445 3.33192L32.1766 3.72249C32.1881 3.7627 32.2111 3.79142 32.2456 3.81439C32.28 3.83737 32.3145 3.84885 32.3547 3.84885C32.3949 3.84885 32.4351 3.83737 32.4638 3.81439C32.4983 3.79142 32.5213 3.75695 32.5327 3.72249L32.6648 3.33192C32.6648 3.33192 32.6878 3.28023 32.7108 3.25726C32.7338 3.23428 32.7567 3.22279 32.7855 3.21131L33.176 3.0792C33.2162 3.06772 33.245 3.04474 33.2679 3.01028C33.2909 2.97582 33.3024 2.94136 33.3024 2.90115C33.3024 2.86094 33.2909 2.82074 33.2679 2.79202C33.245 2.75756 33.2105 2.73458 33.176 2.7231L32.7855 2.59099C32.7855 2.59099 32.7338 2.56802 32.7108 2.54504C32.6878 2.52207 32.6763 2.49909 32.6648 2.47038L32.5327 2.07981Z" fill="white"/>
</g>
<path opacity="0.11" d="M11.6315 16.3298C11.62 16.2896 11.597 16.2609 11.5626 16.2379C11.5281 16.2149 11.4936 16.2034 11.4534 16.2034C11.4132 16.2034 11.373 16.2149 11.3443 16.2379C11.3098 16.2609 11.2869 16.2953 11.2754 16.3298L11.1433 16.7204C11.1433 16.7204 11.1203 16.7721 11.0973 16.795C11.0744 16.818 11.0514 16.8295 11.0227 16.841L10.6321 16.9731C10.5919 16.9846 10.5632 17.0076 10.5402 17.042C10.5172 17.0765 10.5057 17.1109 10.5057 17.1512C10.5057 17.1914 10.5172 17.2316 10.5402 17.2603C10.5632 17.2947 10.5976 17.3177 10.6321 17.3292L11.0227 17.4613C11.0227 17.4613 11.0744 17.4843 11.0973 17.5073C11.1203 17.5302 11.1318 17.5532 11.1433 17.5819L11.2754 17.9725C11.2869 18.0127 11.3098 18.0414 11.3443 18.0644C11.3788 18.0874 11.4132 18.0989 11.4534 18.0989C11.4936 18.0989 11.5339 18.0874 11.5626 18.0644C11.597 18.0414 11.62 18.007 11.6315 17.9725L11.7636 17.5819C11.7636 17.5819 11.7866 17.5302 11.8095 17.5073C11.8325 17.4843 11.8555 17.4728 11.8842 17.4613L12.2748 17.3292C12.315 17.3177 12.3437 17.2947 12.3667 17.2603C12.3897 17.2258 12.4011 17.1914 12.4011 17.1512C12.4011 17.1109 12.3897 17.0707 12.3667 17.042C12.3437 17.0076 12.3092 16.9846 12.2748 16.9731L11.8842 16.841C11.8842 16.841 11.8325 16.818 11.8095 16.795C11.7866 16.7721 11.7751 16.7491 11.7636 16.7204L11.6315 16.3298Z" fill="white"/>
<path opacity="0.45" d="M10.1258 8.12636C10.1143 8.08616 10.0913 8.05744 10.0568 8.03446C10.0224 8.01149 9.98791 8 9.9477 8C9.9075 8 9.86729 8.01149 9.83857 8.03446C9.80411 8.05744 9.78114 8.0919 9.76965 8.12636L9.63755 8.51693C9.63755 8.51693 9.61457 8.56862 9.5916 8.5916C9.56862 8.61457 9.54565 8.62606 9.51693 8.63755L9.12636 8.76965C9.08615 8.78114 9.05744 8.80411 9.03446 8.83857C9.01149 8.87304 9 8.9075 9 8.9477C9 8.98791 9.01149 9.02811 9.03446 9.05683C9.05744 9.09129 9.0919 9.11427 9.12636 9.12576L9.51693 9.25786C9.51693 9.25786 9.56862 9.28084 9.5916 9.30381C9.61457 9.32678 9.62606 9.34976 9.63755 9.37848L9.76965 9.76905C9.78114 9.80925 9.80411 9.83797 9.83857 9.86094C9.87304 9.88392 9.9075 9.89541 9.9477 9.89541C9.98791 9.89541 10.0281 9.88392 10.0568 9.86094C10.0913 9.83797 10.1143 9.80351 10.1258 9.76905L10.2579 9.37848C10.2579 9.37848 10.2808 9.32678 10.3038 9.30381C10.3268 9.28084 10.3498 9.26935 10.3785 9.25786L10.769 9.12576C10.8093 9.11427 10.838 9.09129 10.8609 9.05683C10.8839 9.02237 10.8954 8.98791 10.8954 8.9477C10.8954 8.9075 10.8839 8.86729 10.8609 8.83857C10.838 8.80411 10.8035 8.78114 10.769 8.76965L10.3785 8.63755C10.3785 8.63755 10.3268 8.61457 10.3038 8.5916C10.2808 8.56862 10.2693 8.54565 10.2579 8.51693L10.1258 8.12636Z" fill="white"/>
<path opacity="0.2" d="M30.6315 10.6321C30.62 10.5919 30.597 10.5632 30.5626 10.5402C30.5281 10.5172 30.4936 10.5057 30.4534 10.5057C30.4132 10.5057 30.373 10.5172 30.3443 10.5402C30.3098 10.5632 30.2869 10.5976 30.2754 10.6321L30.1433 11.0227C30.1433 11.0227 30.1203 11.0744 30.0973 11.0973C30.0744 11.1203 30.0514 11.1318 30.0227 11.1433L29.6321 11.2754C29.5919 11.2869 29.5632 11.3099 29.5402 11.3443C29.5172 11.3788 29.5057 11.4132 29.5057 11.4534C29.5057 11.4937 29.5172 11.5339 29.5402 11.5626C29.5632 11.597 29.5976 11.62 29.6321 11.6315L30.0227 11.7636C30.0227 11.7636 30.0744 11.7866 30.0973 11.8096C30.1203 11.8325 30.1318 11.8555 30.1433 11.8842L30.2754 12.2748C30.2869 12.315 30.3098 12.3437 30.3443 12.3667C30.3788 12.3897 30.4132 12.4011 30.4534 12.4011C30.4936 12.4011 30.5339 12.3897 30.5626 12.3667C30.597 12.3437 30.62 12.3093 30.6315 12.2748L30.7636 11.8842C30.7636 11.8842 30.7866 11.8325 30.8095 11.8096C30.8325 11.7866 30.8555 11.7751 30.8842 11.7636L31.2748 11.6315C31.315 11.62 31.3437 11.597 31.3667 11.5626C31.3897 11.5281 31.4011 11.4937 31.4011 11.4534C31.4011 11.4132 31.3897 11.373 31.3667 11.3443C31.3437 11.3099 31.3092 11.2869 31.2748 11.2754L30.8842 11.1433C30.8842 11.1433 30.8325 11.1203 30.8095 11.0973C30.7866 11.0744 30.7751 11.0514 30.7636 11.0227L30.6315 10.6321Z" fill="white"/>
<g opacity="0.17">
<path d="M26.1259 5.12636C26.1144 5.08616 26.0914 5.05744 26.057 5.03446C26.0225 5.01149 25.988 5 25.9478 5C25.9076 5 25.8674 5.01149 25.8387 5.03446C25.8042 5.05744 25.7813 5.0919 25.7698 5.12636L25.6377 5.51693C25.6377 5.51693 25.6147 5.56862 25.5917 5.5916C25.5687 5.61457 25.5458 5.62606 25.517 5.63755L25.1265 5.76965C25.0863 5.78114 25.0576 5.80411 25.0346 5.83857C25.0116 5.87304 25.0001 5.9075 25.0001 5.9477C25.0001 5.98791 25.0116 6.02811 25.0346 6.05683C25.0576 6.0913 25.092 6.11427 25.1265 6.12576L25.517 6.25786C25.517 6.25786 25.5687 6.28084 25.5917 6.30381C25.6147 6.32678 25.6262 6.34976 25.6377 6.37848L25.7698 6.76905C25.7813 6.80925 25.8042 6.83797 25.8387 6.86094C25.8732 6.88392 25.9076 6.89541 25.9478 6.89541C25.988 6.89541 26.0282 6.88392 26.057 6.86094C26.0914 6.83797 26.1144 6.80351 26.1259 6.76905L26.258 6.37848C26.258 6.37848 26.281 6.32678 26.3039 6.30381C26.3269 6.28084 26.3499 6.26935 26.3786 6.25786L26.7692 6.12576C26.8094 6.11427 26.8381 6.0913 26.8611 6.05683C26.884 6.02237 26.8955 5.98791 26.8955 5.9477C26.8955 5.9075 26.884 5.86729 26.8611 5.83857C26.8381 5.80411 26.8036 5.78114 26.7692 5.76965L26.3786 5.63755C26.3786 5.63755 26.3269 5.61457 26.3039 5.5916C26.281 5.56862 26.2695 5.54565 26.258 5.51693L26.1259 5.12636Z" fill="white"/>
</g>
<path opacity="0.33" d="M5.51455 11.5798C5.50306 11.5396 5.48009 11.5109 5.44563 11.4879C5.41116 11.4649 5.3767 11.4534 5.3365 11.4534C5.29629 11.4534 5.25609 11.4649 5.22737 11.4879C5.19291 11.5109 5.16993 11.5453 5.15844 11.5798L5.02634 11.9704C5.02634 11.9704 5.00336 12.0221 4.98039 12.045C4.95742 12.068 4.93444 12.0795 4.90572 12.091L4.51515 12.2231C4.47495 12.2346 4.44623 12.2576 4.42326 12.292C4.40028 12.3265 4.38879 12.3609 4.38879 12.4011C4.38879 12.4414 4.40028 12.4816 4.42326 12.5103C4.44623 12.5447 4.48069 12.5677 4.51515 12.5792L4.90572 12.7113C4.90572 12.7113 4.95742 12.7343 4.98039 12.7573C5.00336 12.7802 5.01485 12.8032 5.02634 12.8319L5.15844 13.2225C5.16993 13.2627 5.19291 13.2914 5.22737 13.3144C5.26183 13.3374 5.29629 13.3489 5.3365 13.3489C5.3767 13.3489 5.41691 13.3374 5.44563 13.3144C5.48009 13.2914 5.50306 13.257 5.51455 13.2225L5.64665 12.8319C5.64665 12.8319 5.66963 12.7802 5.6926 12.7573C5.71558 12.7343 5.73855 12.7228 5.76727 12.7113L6.15784 12.5792C6.19804 12.5677 6.22676 12.5447 6.24974 12.5103C6.27271 12.4758 6.2842 12.4414 6.2842 12.4011C6.2842 12.3609 6.27271 12.3207 6.24974 12.292C6.22676 12.2576 6.1923 12.2346 6.15784 12.2231L5.76727 12.091C5.76727 12.091 5.71558 12.068 5.6926 12.045C5.66963 12.0221 5.65814 11.9991 5.64665 11.9704L5.51455 11.5798Z" fill="white"/>
<g opacity="0.44">
<path d="M16.1258 4.12636C16.1143 4.08615 16.0913 4.05744 16.0568 4.03446C16.0224 4.01149 15.9879 4 15.9477 4C15.9075 4 15.8673 4.01149 15.8386 4.03446C15.8041 4.05744 15.7811 4.0919 15.7696 4.12636L15.6375 4.51693C15.6375 4.51693 15.6146 4.56862 15.5916 4.5916C15.5686 4.61457 15.5456 4.62606 15.5169 4.63755L15.1264 4.76965C15.0862 4.78114 15.0574 4.80411 15.0345 4.83857C15.0115 4.87304 15 4.9075 15 4.9477C15 4.98791 15.0115 5.02811 15.0345 5.05683C15.0574 5.09129 15.0919 5.11427 15.1264 5.12576L15.5169 5.25786C15.5169 5.25786 15.5686 5.28083 15.5916 5.30381C15.6146 5.32678 15.6261 5.34976 15.6375 5.37848L15.7696 5.76904C15.7811 5.80925 15.8041 5.83797 15.8386 5.86094C15.873 5.88392 15.9075 5.89541 15.9477 5.89541C15.9879 5.89541 16.0281 5.88392 16.0568 5.86094C16.0913 5.83797 16.1143 5.80351 16.1258 5.76904L16.2579 5.37848C16.2579 5.37848 16.2808 5.32678 16.3038 5.30381C16.3268 5.28083 16.3498 5.26935 16.3785 5.25786L16.769 5.12576C16.8093 5.11427 16.838 5.09129 16.8609 5.05683C16.8839 5.02237 16.8954 4.98791 16.8954 4.9477C16.8954 4.9075 16.8839 4.86729 16.8609 4.83857C16.838 4.80411 16.8035 4.78114 16.769 4.76965L16.3785 4.63755C16.3785 4.63755 16.3268 4.61457 16.3038 4.5916C16.2808 4.56862 16.2693 4.54565 16.2579 4.51693L16.1258 4.12636Z" fill="white"/>
</g>
<path opacity="0.09" d="M5.51455 17.9725C5.50306 18.0127 5.48009 18.0414 5.44563 18.0644C5.41116 18.0874 5.3767 18.0989 5.3365 18.0989C5.29629 18.0989 5.25609 18.0874 5.22737 18.0644C5.19291 18.0414 5.16993 18.007 5.15844 17.9725L5.02634 17.5819C5.02634 17.5819 5.00336 17.5302 4.98039 17.5073C4.95742 17.4843 4.93444 17.4728 4.90572 17.4613L4.51515 17.3292C4.47495 17.3177 4.44623 17.2947 4.42326 17.2603C4.40028 17.2258 4.38879 17.1914 4.38879 17.1512C4.38879 17.1109 4.40028 17.0707 4.42326 17.042C4.44623 17.0076 4.48069 16.9846 4.51515 16.9731L4.90572 16.841C4.90572 16.841 4.95742 16.818 4.98039 16.795C5.00336 16.7721 5.01485 16.7491 5.02634 16.7204L5.15844 16.3298C5.16993 16.2896 5.19291 16.2609 5.22737 16.2379C5.26183 16.2149 5.29629 16.2034 5.3365 16.2034C5.3767 16.2034 5.41691 16.2149 5.44563 16.2379C5.48009 16.2609 5.50306 16.2953 5.51455 16.3298L5.64665 16.7204C5.64665 16.7204 5.66963 16.7721 5.6926 16.795C5.71558 16.818 5.73855 16.8295 5.76727 16.841L6.15784 16.9731C6.19804 16.9846 6.22676 17.0076 6.24974 17.042C6.27271 17.0765 6.2842 17.1109 6.2842 17.1512C6.2842 17.1914 6.27271 17.2316 6.24974 17.2603C6.22676 17.2947 6.1923 17.3177 6.15784 17.3292L5.76727 17.4613C5.76727 17.4613 5.71558 17.4843 5.6926 17.5073C5.66963 17.5302 5.65814 17.5532 5.64665 17.5819L5.51455 17.9725Z" fill="white"/>
<path opacity="0.09" d="M30.1258 8.76905C30.1143 8.80925 30.0913 8.83797 30.0568 8.86094C30.0224 8.88392 29.9879 8.89541 29.9477 8.89541C29.9075 8.89541 29.8673 8.88392 29.8386 8.86094C29.8041 8.83797 29.7811 8.80351 29.7696 8.76905L29.6375 8.37848C29.6375 8.37848 29.6146 8.32678 29.5916 8.30381C29.5686 8.28083 29.5456 8.26935 29.5169 8.25786L29.1264 8.12576C29.0862 8.11427 29.0574 8.09129 29.0345 8.05683C29.0115 8.02237 29 7.98791 29 7.9477C29 7.9075 29.0115 7.86729 29.0345 7.83857C29.0574 7.80411 29.0919 7.78114 29.1264 7.76965L29.5169 7.63755C29.5169 7.63755 29.5686 7.61457 29.5916 7.5916C29.6146 7.56862 29.6261 7.54565 29.6375 7.51693L29.7696 7.12636C29.7811 7.08616 29.8041 7.05744 29.8386 7.03446C29.873 7.01149 29.9075 7 29.9477 7C29.9879 7 30.0281 7.01149 30.0568 7.03446C30.0913 7.05744 30.1143 7.0919 30.1258 7.12636L30.2579 7.51693C30.2579 7.51693 30.2808 7.56862 30.3038 7.5916C30.3268 7.61457 30.3498 7.62606 30.3785 7.63755L30.769 7.76965C30.8093 7.78114 30.838 7.80411 30.8609 7.83857C30.8839 7.87304 30.8954 7.9075 30.8954 7.9477C30.8954 7.98791 30.8839 8.02811 30.8609 8.05683C30.838 8.09129 30.8035 8.11427 30.769 8.12576L30.3785 8.25786C30.3785 8.25786 30.3268 8.28083 30.3038 8.30381C30.2808 8.32678 30.2693 8.34976 30.2579 8.37848L30.1258 8.76905Z" fill="white"/>
<path opacity="0.09" d="M16.5653 11.89C16.5538 11.9302 16.5309 11.9589 16.4964 11.9819C16.4619 12.0048 16.4275 12.0163 16.3873 12.0163C16.3471 12.0163 16.3069 12.0048 16.2781 11.9819C16.2437 11.9589 16.2207 11.9244 16.2092 11.89L16.0771 11.4994C16.0771 11.4994 16.0541 11.4477 16.0312 11.4247C16.0082 11.4018 15.9852 11.3903 15.9565 11.3788L15.5659 11.2467C15.5257 11.2352 15.497 11.2122 15.474 11.1778C15.4511 11.1433 15.4396 11.1088 15.4396 11.0686C15.4396 11.0284 15.4511 10.9882 15.474 10.9595C15.497 10.925 15.5315 10.9021 15.5659 10.8906L15.9565 10.7585C15.9565 10.7585 16.0082 10.7355 16.0312 10.7125C16.0541 10.6895 16.0656 10.6666 16.0771 10.6378L16.2092 10.2473C16.2207 10.2071 16.2437 10.1784 16.2781 10.1554C16.3126 10.1324 16.3471 10.1209 16.3873 10.1209C16.4275 10.1209 16.4677 10.1324 16.4964 10.1554C16.5309 10.1784 16.5538 10.2128 16.5653 10.2473L16.6974 10.6378C16.6974 10.6378 16.7204 10.6895 16.7434 10.7125C16.7664 10.7355 16.7893 10.747 16.8181 10.7585L17.2086 10.8906C17.2488 10.9021 17.2775 10.925 17.3005 10.9595C17.3235 10.994 17.335 11.0284 17.335 11.0686C17.335 11.1088 17.3235 11.149 17.3005 11.1778C17.2775 11.2122 17.2431 11.2352 17.2086 11.2467L16.8181 11.3788C16.8181 11.3788 16.7664 11.4018 16.7434 11.4247C16.7204 11.4477 16.7089 11.4707 16.6974 11.4994L16.5653 11.89Z" fill="white"/>
<path opacity="0.09" d="M21.7576 6.38755C21.7461 6.42775 21.7231 6.45647 21.6887 6.47944C21.6542 6.50242 21.6197 6.51391 21.5795 6.51391C21.5393 6.51391 21.4991 6.50242 21.4704 6.47944C21.4359 6.45647 21.413 6.42201 21.4015 6.38755L21.2694 5.99698C21.2694 5.99698 21.2464 5.94528 21.2234 5.92231C21.2005 5.89934 21.1775 5.88785 21.1488 5.87636L20.7582 5.74426C20.718 5.73277 20.6893 5.7098 20.6663 5.67533C20.6433 5.64087 20.6318 5.60641 20.6318 5.5662C20.6318 5.526 20.6433 5.48579 20.6663 5.45707C20.6893 5.42261 20.7237 5.39964 20.7582 5.38815L21.1488 5.25605C21.1488 5.25605 21.2005 5.23307 21.2234 5.2101C21.2464 5.18712 21.2579 5.16415 21.2694 5.13543L21.4015 4.74486C21.413 4.70466 21.4359 4.67594 21.4704 4.65296C21.5049 4.62999 21.5393 4.6185 21.5795 4.6185C21.6197 4.6185 21.6599 4.62999 21.6887 4.65296C21.7231 4.67594 21.7461 4.7104 21.7576 4.74486L21.8897 5.13543C21.8897 5.13543 21.9127 5.18712 21.9356 5.2101C21.9586 5.23307 21.9816 5.24456 22.0103 5.25605L22.4009 5.38815C22.4411 5.39964 22.4698 5.42261 22.4928 5.45707C22.5158 5.49154 22.5272 5.526 22.5272 5.5662C22.5272 5.60641 22.5158 5.64662 22.4928 5.67533C22.4698 5.7098 22.4353 5.73277 22.4009 5.74426L22.0103 5.87636C22.0103 5.87636 21.9586 5.89934 21.9356 5.92231C21.9127 5.94528 21.9012 5.96826 21.8897 5.99698L21.7576 6.38755Z" fill="white"/>
<path opacity="0.15" d="M36.3292 17.2775C36.3178 17.2373 36.2948 17.2086 36.2603 17.1856C36.2259 17.1626 36.1914 17.1512 36.1512 17.1512C36.111 17.1512 36.0708 17.1626 36.0421 17.1856C36.0076 17.2086 35.9846 17.243 35.9731 17.2775L35.841 17.6681C35.841 17.6681 35.8181 17.7198 35.7951 17.7427C35.7721 17.7657 35.7491 17.7772 35.7204 17.7887L35.3299 17.9208C35.2896 17.9323 35.2609 17.9553 35.238 17.9897C35.215 18.0242 35.2035 18.0586 35.2035 18.0989C35.2035 18.1391 35.215 18.1793 35.238 18.208C35.2609 18.2424 35.2954 18.2654 35.3299 18.2769L35.7204 18.409C35.7204 18.409 35.7721 18.432 35.7951 18.455C35.8181 18.4779 35.8295 18.5009 35.841 18.5296L35.9731 18.9202C35.9846 18.9604 36.0076 18.9891 36.0421 19.0121C36.0765 19.0351 36.111 19.0466 36.1512 19.0466C36.1914 19.0466 36.2316 19.0351 36.2603 19.0121C36.2948 18.9891 36.3178 18.9547 36.3292 18.9202L36.4614 18.5296C36.4614 18.5296 36.4843 18.4779 36.5073 18.455C36.5303 18.432 36.5533 18.4205 36.582 18.409L36.9725 18.2769C37.0127 18.2654 37.0415 18.2424 37.0644 18.208C37.0874 18.1735 37.0989 18.1391 37.0989 18.0989C37.0989 18.0586 37.0874 18.0184 37.0644 17.9897C37.0415 17.9553 37.007 17.9323 36.9725 17.9208L36.582 17.7887C36.582 17.7887 36.5303 17.7657 36.5073 17.7427C36.4843 17.7198 36.4728 17.6968 36.4614 17.6681L36.3292 17.2775Z" fill="white"/>
</g>
<path d="M5.72706 23.3026L34.2385 22.5559L30.7407 48.5H9.2594L5.72131 23.3026H5.72706Z" fill="url(#paint0_linear_1_11239)" fill-opacity="0.6"/>
<path d="M31.4651 22.2967C31.3194 23.0142 31.1061 23.711 30.8303 24.3718C29.0873 28.6096 24.8883 31.6034 19.9974 31.6034C13.5507 31.6034 8.30078 26.3952 8.30078 19.9997C8.30078 13.6042 13.5507 8.39597 19.9974 8.39597C25.3514 8.39597 29.8729 11.9783 31.257 16.8562H32.8179C31.4026 11.1988 26.2359 6.99713 20.1015 6.99713C12.8795 6.99713 7 12.83 7 19.9997C7 27.1695 12.8795 32.9971 20.1015 32.9971C25.7781 32.9971 30.6274 29.3942 32.4433 24.3718C32.6878 23.7059 32.8699 23.009 33 22.2967H31.4651ZM29.5191 22.2967C29.337 23.0245 29.0716 23.7214 28.7334 24.3718C27.1257 27.4843 23.8581 29.6213 20.0963 29.6213C14.7474 29.6213 10.4028 25.306 10.4028 19.9997C10.4028 14.6934 14.7527 10.3781 20.0963 10.3781C24.3368 10.3781 27.9478 13.0881 29.259 16.8613H30.9604C29.5868 12.1383 25.1901 8.67987 19.9922 8.67987C13.6964 8.67987 8.57655 13.7591 8.57655 20.0049C8.57655 26.2507 13.6964 31.3299 19.9922 31.3299C24.7218 31.3299 28.7959 28.4599 30.5181 24.3769C30.8043 23.7162 31.0228 23.0194 31.1737 22.3019H29.5139L29.5191 22.2967Z" fill="url(#paint1_radial_1_11239)"/>
<path d="M23.9422 22.4475C23.1307 23.619 21.7555 24.4 20.1944 24.4C17.7091 24.4 15.6914 22.4255 15.6914 19.9999C15.6914 17.5743 17.7147 15.6052 20.1944 15.6052C21.3103 15.6052 22.3304 16.0013 23.1138 16.6558H25.3117C24.1958 14.9947 22.2684 13.8947 20.0817 13.8947C16.6326 13.8947 13.826 16.6338 13.826 19.9999C13.826 23.366 16.6326 26.1051 20.0817 26.1051C22.6404 26.1051 24.8496 24.598 25.8133 22.442H23.9366L23.9422 22.4475ZM26.1515 22.4475C25.1652 24.7685 22.8207 26.4076 20.0874 26.4076C16.4692 26.4076 13.5217 23.531 13.5217 19.9999C13.5217 16.4688 16.4692 13.5922 20.0874 13.5922C22.4488 13.5922 24.5284 14.8187 25.6781 16.6503H27.6393C26.3374 13.9057 23.4914 11.9971 20.1944 11.9971C15.6745 11.9971 12 15.5887 12 19.9944C12 24.4 15.6745 27.9971 20.1944 27.9971C23.8408 27.9971 26.9405 25.6596 28 22.442H26.1515V22.4475Z" fill="url(#paint2_radial_1_11239)"/>
<path d="M31 21.9971C30.8766 22.6936 30.6979 23.3603 30.4638 23.9971H29C29.2766 23.3703 29.4894 22.6986 29.6426 21.9971H31Z" fill="url(#paint3_linear_1_11239)"/>
<path d="M33 21.9971C32.8801 22.6837 32.7074 23.3553 32.4868 23.9971H31C31.2542 23.3553 31.4508 22.6887 31.5851 21.9971H33Z" fill="url(#paint4_linear_1_11239)"/>
<path d="M22.7083 20.3758V20.6231H32.9801C32.9553 21.0903 32.8956 21.5483 32.8062 21.9971H20C20 21.1681 20.3628 20.4216 20.9541 19.8765C21.5455 19.3315 22.3555 18.9971 23.255 18.9971H32.9553C32.9851 19.3132 33 19.6338 33 19.959C33 20.0964 33 20.2338 32.9901 20.3712H22.7034L22.7083 20.3758Z" fill="url(#paint5_linear_1_11239)"/>
</g>
<path d="M20 2C29.9407 2 38 10.0593 38 20C38 29.9407 29.9407 38 20 38C10.0593 38 2 29.9407 2 20C2 10.0593 10.0593 2 20 2Z" stroke="url(#paint6_linear_1_11239)" stroke-opacity="0.3" stroke-width="2.07"/>
<defs>
<linearGradient id="paint0_linear_1_11239" x1="19.9885" y1="22.5559" x2="19.5578" y2="44.0716" gradientUnits="userSpaceOnUse">
<stop stop-color="#597AB9" stop-opacity="0"/>
<stop offset="1" stop-color="#6AF8FF"/>
</linearGradient>
<radialGradient id="paint1_radial_1_11239" cx="0" cy="0" r="1" gradientUnits="userSpaceOnUse" gradientTransform="translate(19.9402 20.2578) scale(12.5968 12.4967)">
<stop offset="0.74" stop-color="white" stop-opacity="0"/>
<stop offset="1" stop-color="white" stop-opacity="0.8"/>
</radialGradient>
<radialGradient id="paint2_radial_1_11239" cx="0" cy="0" r="1" gradientUnits="userSpaceOnUse" gradientTransform="translate(20.3522 20.0384) scale(9.09616 8.87728)">
<stop offset="0.27" stop-color="white" stop-opacity="0"/>
<stop offset="0.36" stop-color="white" stop-opacity="0.02"/>
<stop offset="0.45" stop-color="white" stop-opacity="0.07"/>
<stop offset="0.54" stop-color="white" stop-opacity="0.15"/>
<stop offset="0.63" stop-color="white" stop-opacity="0.26"/>
<stop offset="0.73" stop-color="white" stop-opacity="0.41"/>
<stop offset="0.83" stop-color="white" stop-opacity="0.59"/>
<stop offset="0.92" stop-color="white" stop-opacity="0.8"/>
<stop offset="1" stop-color="white"/>
</radialGradient>
<linearGradient id="paint3_linear_1_11239" x1="30" y1="21.614" x2="30" y2="22.5842" gradientUnits="userSpaceOnUse">
<stop stop-color="white"/>
<stop offset="1" stop-color="white" stop-opacity="0"/>
</linearGradient>
<linearGradient id="paint4_linear_1_11239" x1="31.9976" y1="3.32548" x2="31.9976" y2="3.32548" gradientUnits="userSpaceOnUse">
<stop stop-color="white"/>
<stop offset="1" stop-color="white" stop-opacity="0"/>
</linearGradient>
<linearGradient id="paint5_linear_1_11239" x1="25.9732" y1="20.5132" x2="53.8067" y2="20.2759" gradientUnits="userSpaceOnUse">
<stop stop-color="white" stop-opacity="0.8"/>
<stop offset="0.26" stop-color="white" stop-opacity="0"/>
</linearGradient>
<linearGradient id="paint6_linear_1_11239" x1="20" y1="1.42153" x2="20" y2="38.5785" gradientUnits="userSpaceOnUse">
<stop stop-color="white"/>
<stop offset="0.51" stop-color="white" stop-opacity="0"/>
</linearGradient>
</defs>
</svg>
